PathFileType	4	(X/Y/Z)	Patient4_TMGait_0pt7_01_left_41.trc.trc
DataRate	CameraRate	NumFrames	NumMarkers	Units	OrigDataRate	OrigDataStartFrame	OrigNumFrames
86.419753086420	86.419753086420	6	33	mm	86.419753086420	53	       141
Frame#	Time	Sacral			L.Shoulder			Chest			R.Shoulder			Neck			R.ASIS			L.ASIS			R.Thigh.Superior			R.Thigh.Lateral			R.Thigh.Inferior			R.Patella			L.Thigh.Superior			L.Thigh.Lateral			L.Thigh.Inferior			L.Patella			L.Shank.Superior			L.Shank.Lateral			L.Shank.Inferior			R.Shank.Superior			R.Shank.Lateral			R.Shank.Inferior			R.Heel			R.Midfoot.Superior			R.Midfoot.Lateral			R.Toe			L.Heel			L.Midfoot.Lateral			L.Midfoot.Superior			L.Toe			L.Elbow			L.Wrist			R.Elbow			R.Wrist			
		X1	Y1	Z1	X2	Y2	Z2	X3	Y3	Z3	X4	Y4	Z4	X5	Y5	Z5	X6	Y6	Z6	X7	Y7	Z7	X8	Y8	Z8	X9	Y9	Z9	X10	Y10	Z10	X11	Y11	Z11	X12	Y12	Z12	X13	Y13	Z13	X14	Y14	Z14	X15	Y15	Z15	X16	Y16	Z16	X17	Y17	Z17	X18	Y18	Z18	X19	Y19	Z19	X20	Y20	Z20	X21	Y21	Z21	X22	Y22	Z22	X23	Y23	Z23	X24	Y24	Z24	X25	Y25	Z25	X26	Y26	Z26	X27	Y27	Z27	X28	Y28	Z28	X29	Y29	Z29	X30	Y30	Z30	X31	Y31	Z31	X32	Y32	Z32	X33	Y33	Z33	

53	48.071714285714	852.134743103993	1018.123915697472	429.732147901163	1057.334857380352	1435.650450112713	243.395620496934	1159.231389684626	1360.721407160636	404.139972361751	1081.775488018753	1444.500263445729	576.825841593017	1068.219265096546	1496.584149061041	396.145925040480	1077.354566906718	948.397337496900	544.607970225616	1063.569094681112	965.088867132044	271.298856906737	1163.463151078296	789.699153030347	520.048929799410	1130.343566836893	669.204075631729	599.997301421594	1225.229550314646	633.657298471244	525.143568452348	1248.010490419355	518.990026233280	549.522415986131	1104.101791976882	753.312523297788	294.804210529171	1006.130295771030	640.969195047716	244.443564238533	1090.734842278881	560.772722179518	303.040807451797	1088.912894203860	492.885083655627	314.711126076558	1064.674078311951	422.362297349199	309.311053742684	974.804962612428	305.197793133027	264.189810953133	1032.427267150598	196.629785871349	336.157383194639	1169.286520716066	444.052383726971	553.148510685623	1042.984606702231	410.310204675048	606.509217800485	1027.305601919155	301.505911077546	557.442588236599	825.766543799552	247.126037571298	520.134912976927	989.774817922980	180.929853353516	565.348116160412	878.961694009582	181.903260090946	593.125067128927	1050.190128881764	66.216576694881	589.309529768428	909.364617037576	39.692104267545	387.605567330435	982.102559112531	35.783128963748	305.630619159314	1065.605039503543	96.698436911258	329.814257119789	1193.914688504014	43.131950060811	300.891819332104	1022.373264662105	1096.705034913726	102.345108116353	1171.498417767255	879.767499700512	101.005765659580	998.247365816877	1113.870489401467	705.735397623980	1200.319250071492	958.466350368863	675.836530531339	
54	48.083285714286	851.640429483304	1018.339369707538	428.805717096141	1057.859626264069	1436.104136224685	242.869194704636	1159.003447570038	1361.084130324602	403.950346021493	1080.911916104109	1444.855016372947	576.325406379498	1067.866025244283	1496.934272707295	395.589418838377	1076.828558904850	949.134843132675	544.272937526703	1063.633802541049	965.736982804001	270.796556452759	1165.226680388166	793.796232691393	519.983881346605	1134.691617816520	672.754110325699	600.393798452395	1230.520205343550	639.182184875932	525.781108623898	1256.155180243841	525.433210673231	550.401751375931	1101.775839792974	752.686743327885	294.646914415622	1002.356118078997	641.377588954805	243.958639519803	1085.902509159322	560.153606591979	302.473838918887	1083.194016153379	492.388870779790	314.166783808057	1058.649192917759	422.170190850628	308.793936247766	967.821826692252	305.579261613685	263.973759774187	1025.012247559843	196.647879889827	335.789669351022	1180.195530389444	448.032197277122	554.078334954813	1055.446652932762	409.044914033172	607.314792471226	1044.460946939299	299.504974146712	558.515233858257	845.540184429480	236.390194991835	520.945043564897	1012.059027417203	177.416566964274	566.952235619183	901.243850093910	173.843444283675	594.397071578618	1077.229367370991	65.608854998099	591.781327117617	901.243364044767	39.897328290514	387.522637391708	974.027779108490	35.870025676633	305.637513531969	1057.614790526547	96.693350630301	329.677032920738	1185.834622491559	42.892419619006	300.828763307202	1029.510229457137	1097.702569101389	99.692095759622	1190.662332192956	889.727484900980	99.701823097603	992.676530868072	1114.543192211059	703.670087711861	1180.937972440502	940.504535929617	680.343803477796	
55	48.094857142857	851.157026813820	1018.473259697125	427.997369549711	1058.418309074198	1436.459116542484	242.441516634546	1158.821624665359	1361.334627573269	403.832991768256	1080.141886050898	1445.099420535909	575.908842768058	1067.535102342403	1497.180082459695	395.108345558049	1076.320933568390	949.696323909904	544.080093127185	1063.702452509118	966.252095522101	270.421320439899	1166.650008878911	797.392498001806	520.150184766675	1138.390636482063	675.845106030351	600.843368798216	1234.952068350485	644.031170520059	526.396947186847	1263.246031420601	531.459116498658	551.303979758556	1099.476140661895	752.044853128445	294.753656508838	998.670754979757	641.765239588014	243.532861248506	1081.094931204674	559.544607151428	302.006642051843	1077.503530735934	491.913114464731	313.671518141477	1052.651106675666	421.978563686532	308.326529103132	960.888394458879	305.968227643904	263.802370162810	1017.622749815767	196.671407558528	335.461187543218	1190.405117889220	451.596238472259	555.093305362301	1067.686967138995	406.864626140766	608.321334807299	1061.970527184320	296.724095085174	559.842835010070	866.394847861048	224.135369609796	522.107825996415	1035.340061072714	173.085489288162	568.896932728836	924.723216200497	164.609775879924	596.060301037919	1105.574898563168	64.577853329138	594.705334111261	893.137743281873	40.123152930306	387.444067754544	965.957626522943	35.960579731066	305.661490129362	1049.639700653070	96.696703093859	329.553792724036	1177.760932798672	42.647567270787	300.776037362598	1036.212164818883	1098.811365571212	97.214021485406	1208.983681482452	900.620293581819	98.811684464743	987.884786653999	1115.141074325824	702.188195794214	1160.426986056571	923.898954728974	684.790372786565	
56	48.106428571429	850.700821819379	1018.517445654780	427.328490276990	1058.985437882009	1436.691918425314	242.124437005936	1158.684815121103	1361.456078229121	403.797398939848	1079.473685167420	1445.215364895065	575.593539292818	1067.237202587639	1497.304496837929	394.715019292912	1075.841918524013	950.039638927223	544.014359819779	1063.746863572631	966.613187084378	270.178548117497	1167.727146964417	800.392666644646	520.468619047478	1141.437493442781	678.390731989585	601.311735299542	1238.493103180780	648.078652125737	526.928706695211	1269.231399359833	536.944559645706	552.167046639819	1097.248533037181	751.374590199992	295.069036978269	995.068622849039	642.123182483796	243.167540669199	1076.313033126089	558.936756179485	301.623598945975	1071.849570002978	491.455269693788	313.220137223117	1046.680892912243	421.779356804722	307.912167433510	954.015181499335	306.354556414754	263.669880558428	1010.265481687035	196.694213471570	335.177920720086	1199.850528183662	454.708576169066	556.150827040575	1079.716292645986	403.855347082543	609.521622973777	1079.769077725253	293.338582730668	561.405767075317	888.359230401582	210.727006305266	523.644887266930	1059.501639185389	168.222946082972	571.158113877481	949.354718431816	154.562816205993	598.112733224663	1134.981229536039	63.432660648704	598.005228309145	885.050015599570	40.369184759603	387.366804588416	957.890857040901	36.053479331725	305.698683257210	1041.678359766721	96.706693089075	329.444433847410	1169.692592810261	42.401382559767	300.730445570566	1042.515028949685	1099.985220776149	94.894540183446	1226.367657891309	912.337243114259	98.315040525386	983.728968486576	1115.679863175464	701.289235065639	1139.004161175496	908.887377542546	689.159001934771	
57	48.118000000000	850.296602898728	1018.465990647445	426.819007475666	1059.536300340338	1436.789087248006	241.933800316936	1158.593798218647	1361.436859326532	403.852596033686	1078.922697480993	1445.188871596360	575.398623747000	1066.985899539414	1497.295501537436	394.428554791406	1075.405473312636	950.140455354580	544.061787492611	1063.746996821487	966.805855277551	270.071979310146	1168.447333838424	802.714289497344	520.867930756809	1143.815844569882	680.317013859607	601.771433172655	1241.117004028471	651.221069630474	527.333464346166	1274.069462701760	541.781762382116	552.933516043947	1095.132179286932	750.659498155532	295.528115482498	991.535488157705	642.444393554040	242.869020826223	1071.551080196676	558.320944408942	301.316322938706	1066.231425452193	491.010082243408	312.816727341123	1040.731155898704	421.566477391380	307.559376185181	947.203833341457	306.729798306335	263.574985798883	1002.942708250503	196.711711976795	334.947788983539	1208.474990908804	457.346284767599	557.205634937965	1091.544162747298	400.120505772360	610.905941294673	1097.776659517554	289.535867284072	563.171932770588	911.431409732083	196.527807489172	525.561207955782	1084.414759920634	163.138476333770	573.699427985132	975.072533810294	144.066504203207	600.532334903705	1165.205997455757	62.511251086527	601.585566672040	876.979987277758	40.633362116771	387.290078905003	949.825648118314	36.148176510946	305.745262233538	1033.728127783652	96.721620937675	329.348858169600	1161.627011417080	42.158814703149	300.688794354797	1048.462969170943	1101.190346010345	92.726289457312	1242.732860243704	924.760139666450	98.190124691240	980.033871012021	1116.195094162997	700.938104879382	1116.936901648378	895.685612340550	693.417438394789	
58	48.129571428571	849.975440428217	1018.312855428939	426.485913794835	1060.049762567882	1436.746890244076	241.887746047774	1158.551236984431	1361.271107438682	404.006955634853	1078.508320815573	1445.011630514947	575.343152665746	1066.795956563575	1497.146610839560	394.272298948204	1075.031859445719	949.992932583909	544.212556235576	1063.700451009730	966.829072983993	270.101616539821	1168.800048504553	804.291795699101	521.292004234598	1145.501859733673	681.564716663731	602.206324508017	1242.808942841811	653.381813120953	527.591713564576	1277.736713938350	545.881851747527	553.554254399813	1093.148539148412	749.881549500693	296.065860015147	988.050050215788	642.724186983950	242.647342932705	1066.796372519627	557.688880231512	301.084098508172	1060.638701945540	490.569707445092	312.473160251700	1034.786258801242	421.336578153051	307.279856362537	940.446476334012	307.087869454001	263.520397108987	995.651627770618	196.721380547161	334.779308910158	1216.232439639814	459.497077258286	558.212585512709	1103.171613669417	395.776462644684	612.460405874418	1115.890445655584	285.504553995806	565.095762688295	935.558902007687	181.886870710165	527.843633305308	1109.923989857465	158.146569559959	576.467255008489	1001.774027942319	133.472259120960	603.274487859080	1195.998180207186	62.153239435137	605.326298238537	868.925082548022	40.911734042626	387.215990058506	941.759853978982	36.244824027724	305.798035039592	1025.785539030972	96.740009922051	329.267190938963	1153.560587598507	41.924921914273	300.648483300398	1054.098491925959	1102.404829127001	90.710792713533	1258.009560372160	937.762655449318	98.414442143817	976.609170663819	1116.738423279454	701.073840338888	1094.534739631871	884.469181129436	697.516223466939	
